# xmcd
#
# Track frame offsets:
#	150
#	17246
#	34823
#	56063
#	68094
#	86982
#	118104
#	134929
#	165148
#	184936
#	211513
#	230780
#
# Disc length: 3501 seconds
#
# Revision: 1
# Processed by: cddbd v1.5.2PL0 Copyright (c) Steve Scherf et al.
# Submitted via: audiograbber 1.83.01
#
DISCID=ad0dab0c
DTITLE=Scottyboy Daniel Blues Band - Flip The Switch
DYEAR=2008
DGENRE=Blues
TTITLE0=Flip The Switch
TTITLE1=Days On End
TTITLE2=Tricky Woman
TTITLE3=K Street Stomp
TTITLE4=Club Tavern
TTITLE5=Must Be Jelly
TTITLE6=Cried Last Night
TTITLE7=Blue Midnight
TTITLE8=I'm Gonna Get Drunk
TTITLE9=Little Girl
TTITLE10=Train Fare Home
TTITLE11=Darkness Falling
EXTD=Blue Edge Records, Produced by Steve McBride
EXTT0=
EXTT1=
EXTT2=
EXTT3=
EXTT4=
EXTT5=
EXTT6=
EXTT7=
EXTT8=
EXTT9=
EXTT10=
EXTT11=
PLAYORDER=
